<svg width="512" height="512" xmlns="http://www.w3.org/2000/svg">

 <g>
  <title>background</title>
  <rect fill="none" id="canvas_background" height="402" width="582" y="-1" x="-1"/>
 </g>
 <g>
  <title>Layer 1</title>
  <rect fill="#ff7f00" id="svg_3" y="91.583" x="154.92" width="13.813" height="10"/>
  <rect fill="#5fbf00" id="svg_4" y="165.456" x="40.924" width="20.202" height="10"/>
  <rect fill="#00bf00" id="svg_5" y="304.113" x="15.777" width="16.656" height="10"/>
  <rect fill="#00bf00" id="svg_6" y="335.364" x="45.494" width="16.656" height="10"/>
  <path fill="#ff7f00" id="svg_7" d="m430.872,143.576c-20.18,-20.67 -45.439,-36.351 -73.739,-45.02c47.59,-24 85.569,-28.18 102.859,-10.9c11.79,11.8 13.7,33.77 5.51,62.22l-7.699,-16.96l-9.11,4.13l14.78,32.57l32.75,-14.85l-4.13,-9.11l-17.221,7.81c9.671,-32.92 7.011,-58.06 -7.81,-72.88c-22.07,-22.07 -67.33,-16.85 -124.32,14.24c-9.8,-2.101 -19.91,-3.38 -30.229,-3.75c-0.891,-0.07 -1.771,-0.13 -2.66,-0.13c-0.37,0 -0.74,0.02 -1.101,0.04c-0.859,-0.02 -1.72,-0.04 -2.59,-0.04c-1.47,0 -2.93,0.02 -4.39,0.07c-2.04,0.05 -4.07,0.14 -6.09,0.26l-114.22,0l0,10l65.58,0c-25,9.04 -47.36,23.63 -65.58,42.29c-2.4,2.46 -4.73,4.98 -6.98,7.58c-3.97,4.57 -7.71,9.34 -11.19,14.31l-83.56,0l0,10l77.04,0c-3.69,6.12 -7.02,12.479 -9.95,19.05l-37,0l0,10l32.9,0c-7.08,18.95 -10.95,39.45 -10.95,60.84c0,11.5 1.13,22.74 3.26,33.63c-0.99,1.72 -1.96,3.431 -2.91,5.14l-83.87,0l0,10l78.5,0c-3.74,7.25 -7.07,14.351 -9.97,21.25l-40.6,0l0,10l36.65,0c-4,10.841 -6.87,21.091 -8.48,30.541c-4.16,24.359 -0.04,43.539 11.9,55.479c8.99,8.99 21.65,13.521 37.75,13.511c3.41,0 6.98,-0.201 10.7,-0.61c19.05,-2.091 41.18,-9.44 65.79,-21.83c19.79,9.569 41.65,15.51 64.72,16.94c0.02,0.01 0.039,0.01 0.069,0.01c2.12,0.13 4.25,0.229 6.391,0.279c1.489,0.04 2.989,0.061 4.489,0.061c0.94,0 1.87,-0.021 2.811,-0.03c0.29,0.01 0.58,0.03 0.88,0.03c0.82,0 1.649,-0.051 2.47,-0.12c33.57,-1.16 65.71,-11.819 93.311,-31.011c9.96,-6.93 19.09,-14.789 27.29,-23.459c0.89,-0.931 1.75,-1.86 2.6,-2.811c14.15,-15.609 25.38,-33.699 33.14,-53.57l-9.31,-3.64c-5.76,14.75 -13.43,28.28 -22.65,40.37c-17.569,-9.199 -39.21,-16.29 -63.2,-20.9c4.62,-22.709 7.291,-48.39 7.49,-75.81l89.51,0c-0.27,13.24 -2.1,26.351 -5.479,39.03l9.66,2.58c3.899,-14.62 5.88,-29.78 5.88,-45.061c0,-43.64 -16.12,-83.59 -42.71,-114.21c-2.251,-2.59 -4.572,-5.11 -6.982,-7.559zm-184.93,199.74c-3.25,0.549 -6.47,1.14 -9.64,1.779c-22.9,4.61 -43.56,11.48 -60.48,20.311c-14.46,-18.791 -24.95,-40.78 -30.21,-64.7c6.23,-10.55 13.17,-21.22 20.77,-31.91l72.32,0c0,0.17 0,0.351 0.01,0.521c0.01,1.479 0.03,2.959 0.06,4.43c-0.01,0.061 0,0.119 0,0.18c0.02,1.3 0.05,2.59 0.09,3.87c0.04,1.43 0.08,2.86 0.14,4.29c0,0.27 0.02,0.54 0.03,0.811c0.08,1.939 0.17,3.879 0.28,5.799c0.07,1.42 0.15,2.83 0.25,4.23c1.101,17.899 3.271,34.839 6.38,50.389zm106.031,-195.93c3.33,8.51 6.24,17.79 8.74,27.68c-17.32,2.7 -35.721,4.12 -54.551,4.12c-16.279,0 -32.229,-1.06 -47.43,-3.089c0.74,-2.98 1.51,-5.9 2.33,-8.77c0.29,-1.02 0.58,-2.03 0.88,-3.03c20.97,-18.25 42.33,-34.3 63.39,-47.61c2.181,-1.39 4.36,-2.74 6.53,-4.06c7.351,7.929 14.231,19.699 20.111,34.759zm18.33,92.979c0.08,1.4 0.149,2.81 0.22,4.22s0.13,2.82 0.18,4.24c0,0.119 0.011,0.23 0.021,0.34c0.109,3.189 0.189,6.4 0.24,9.63l-122.23,0c0.39,-25.88 3.06,-50.7 7.76,-72.92c15.931,2.17 32.641,3.31 49.67,3.31c16.12,0 31.95,-1.02 47.11,-2.979c3.271,-0.42 6.51,-0.88 9.71,-1.39c3.699,17.18 6.178,35.939 7.319,55.549zm-6.691,102.49c-3.2,-0.51 -6.439,-0.979 -9.72,-1.399c-15.33,-2 -31.37,-3.05 -47.73,-3.05c-17.279,0 -34.189,1.17 -50.3,3.39c-4.49,-22.33 -6.96,-47.17 -7.16,-73l122.29,0c0,0.149 0,0.3 -0.01,0.45c-0.01,1.49 -0.03,2.979 -0.06,4.46c-0.03,1.63 -0.07,3.26 -0.11,4.88c-0.04,1.42 -0.09,2.84 -0.15,4.25c-0.849,21.17 -3.25,41.48 -7.05,60.019zm-45.189,-233.63c-16.641,10.621 -33.431,22.88 -50.061,36.55c10.19,-25.35 23.23,-41.06 36.521,-44.22c1.33,-0.32 2.649,-0.51 3.979,-0.57c1,0.01 2,0.04 2.99,0.07c4.07,0.4 8.14,1.98 12.13,4.669c-1.849,1.141 -3.71,2.312 -5.559,3.501zm-78.73,126.676c-0.116,1.689 -0.225,3.382 -0.321,5.084c-0.11,1.99 -0.22,3.98 -0.3,5.99c-0.02,0.21 -0.03,0.42 -0.03,0.64c-0.03,0.83 -0.07,1.66 -0.09,2.5c-0.05,1.051 -0.08,2.11 -0.1,3.181c-0.02,0.511 -0.03,1.03 -0.04,1.55c-0.04,1.311 -0.06,2.63 -0.08,3.951l-65.03,0c16.37,-21.871 35.31,-43.69 56.2,-64.571c1.93,-1.93 3.87,-3.85 5.81,-5.74c1.76,-1.72 3.52,-3.41 5.29,-5.1c1.84,0.339 3.69,0.67 5.55,0.979c-3.305,15.834 -5.641,33.165 -6.859,51.536zm28.03,147.406c-2.79,-7.131 -5.29,-14.801 -7.49,-22.921c-0.78,-2.88 -1.52,-5.819 -2.23,-8.8c15.4,-2.09 31.601,-3.18 48.16,-3.18c19.141,0 37.78,1.449 55.28,4.22c-2.64,11.021 -5.81,21.319 -9.47,30.681c-11.05,28.289 -25.61,45 -40.23,46.34c-0.89,0.029 -1.79,0.049 -2.68,0.069c-1.39,-0.05 -2.78,-0.25 -4.17,-0.58c-13.58,-3.22 -26.901,-19.521 -37.17,-45.829zm76.509,-277.901c29.64,7.06 56.18,22.15 77.2,42.85c2.29,2.26 4.52,4.58 6.68,6.97c-16.24,7.911 -35.87,14.05 -57.49,18.13c-0.739,-2.99 -1.52,-5.91 -2.34,-8.77c-6.979,-24.53 -16.489,-44.28 -27.689,-57.11c1.21,-0.701 2.429,-1.391 3.639,-2.07zm-72.48,-0.821c4.011,-0.86 8.08,-1.57 12.19,-2.13c-12.35,11.5 -22.95,31.08 -30.78,56.24c-5.13,4.51 -10.24,9.15 -15.31,13.91c-20.11,-4.07 -38.37,-9.94 -53.64,-17.38c2.16,-2.39 4.38,-4.709 6.68,-6.97c21.88,-21.549 49.751,-37.02 80.86,-43.67zm-94.199,58.491c14.76,7.47 32.28,13.5 51.57,17.87c-2.11,2.05 -4.2,4.12 -6.29,6.21c-23.12,23.12 -43.92,47.38 -61.55,71.64l-19.37,0c1.42,-36.09 14.52,-69.22 35.64,-95.72zm-23.37,105.72c-3.91,5.66 -7.62,11.3 -11.15,16.93c-0.69,-5.56 -1.1,-11.21 -1.22,-16.93l12.37,0zm-30.85,155.52c-9.56,-9.551 -12.71,-25.711 -9.13,-46.73c3.17,-18.561 11.51,-40.6 24.27,-64.279c7.39,25.799 20.59,49.169 38.08,68.59l2.96,3.209c11.7,12.37 25.19,23.03 40.04,31.57c-44.881,21.33 -79.68,24.189 -96.22,7.64zm65.459,-44c-2.24,-2.271 -4.4,-4.601 -6.49,-7c18.17,-9.16 40.729,-16.051 65.74,-20.23c7.99,34.279 20.6,60.91 35.9,75.15c-4.11,-0.561 -8.17,-1.271 -12.18,-2.131c-32.119,-6.869 -60.8,-23.139 -82.97,-45.789zm148.391,46.539c13.14,-13.039 24.2,-35.299 31.92,-63.689c0.78,-2.87 1.53,-5.811 2.24,-8.811c22.31,4.26 42.43,10.73 58.909,19.08c-2.079,2.4 -4.239,4.74 -6.449,7.01c-23.21,23.821 -53.301,40.121 -86.62,46.41zm133.229,-168.059l-89.449,0c-0.4,-27.46 -3.261,-53.111 -8.091,-75.7c23.37,-4.45 44.551,-11.24 61.9,-20.02c21.121,26.5 34.22,59.63 35.64,95.72z"/>
 </g>
</svg>