<svg width="48" height="48" xmlns="http://www.w3.org/2000/svg">
 <title/>

 <g>
  <title>background</title>
  <rect fill="none" id="canvas_background" height="402" width="582" y="-1" x="-1"/>
 </g>
 <g>
  <title>Layer 1</title>
  <path stroke="null" stroke-width="0" fill="#ff7f00" id="svg_1" d="m40.924101,9.461017l-6.949054,-7.200001a0.868632,0.9 0 0 0 -0.616729,-0.261l-22.584425,0a2.605895,2.7 0 0 0 -2.605895,2.7l0,37.800007a2.605895,2.7 0 0 0 2.605895,2.7l27.796215,0a2.605895,2.7 0 0 0 2.605895,-2.7l0,-32.400006a0.868632,0.9 0 0 0 -0.251903,-0.639zm-6.697151,-4.392001l3.98702,4.131001l-3.118388,0a0.868632,0.9 0 0 1 -0.868632,-0.9l0,-3.231001zm5.21179,37.431007a0.868632,0.9 0 0 1 -0.868632,0.9l-27.796215,0a0.868632,0.9 0 0 1 -0.868632,-0.9l0,-37.800007a0.868632,0.9 0 0 1 0.868632,-0.9l21.715793,0l0,4.500001a2.605895,2.7 0 0 0 2.605895,2.7l4.343159,0l0,31.500006z"/>
  <rect fill="#5fbf00" id="svg_2" y="18.096" x="16" width="20" height="2"/>
  <rect fill="#5fbf00" id="svg_3" y="24" x="12" width="24" height="2"/>
  <rect fill="#5fbf00" id="svg_4" y="30" x="12" width="24" height="2"/>
  <rect fill="#5fbf00" id="svg_5" y="36" x="12" width="16" height="2"/>
  <rect fill="#00bf00" id="svg_6" y="36" x="34" width="2" height="2"/>
  <rect fill="#00bf00" id="svg_7" y="36" x="30" width="2" height="2"/>
 </g>
</svg>