<svg width="64" height="64" xmlns="http://www.w3.org/2000/svg">

 <g>
  <title>background</title>
  <rect fill="none" id="canvas_background" height="402" width="582" y="-1" x="-1"/>
 </g>
 <g>
  <title>Layer 1</title>
  <polygon stroke="null" fill="#f65314" id="svg_2" points="11.765437126159668,46.49260211789897 11.765437126159668,33.900001525878906 3.643993377685547,33.900001525878906 3.643993377685547,54.38514909579044 9.802010536193848,54.38514909579044 9.802010536193848,59.97200521001537 19.262155532836914,54.38514909579044 36.57600021362305,54.38514909579044 36.57600021362305,46.49260211789897 " class="st0"/>
  <path stroke="null" fill="#00a1f1" id="svg_4" d="m40.482765,11c-0.096394,1.9 -0.481972,3.3 -0.674761,4.1l6.844,0c-1.831493,-1.7 -3.952169,-3.1 -6.16924,-4.1z" class="st1"/>
  <path stroke="null" fill="#00a1f1" id="svg_5" d="m20.26311,20.3l7.314741,0c0,0 5.185133,-5.5 7.036966,-10.7c0.092592,-0.2 0.092592,-0.5 0.185183,-0.7c-1.1111,-0.2 -2.314791,-0.3 -3.518483,-0.3c-13.333198,0 -24.351605,11.2 -25.277522,25.3l5.555499,0l0,-6.9l8.703616,0l0,-6.7z" class="st1"/>
  <path stroke="null" fill="#00a1f1" id="svg_6" d="m44.038204,47.076003l-7.721631,0l0,8.000634l-18.26825,0l-2.448322,1.348421c4.143314,2.696843 9.134125,4.314949 14.501601,4.314949c8.380795,0 15.914094,-3.865475 20.622406,-9.798529l-6.685803,-3.865475z" class="st1"/>
  <path stroke="null" fill="#ffbb00" id="svg_7" d="m52.972009,25.242201c0,-1.856364 -1.152342,-2.9311 -2.1274,-2.9311c0.620492,0 1.861475,-0.977033 1.861475,-3.321914c0,-1.856364 -1.240983,-3.321914 -2.65925,-3.321914l-10.10515,0c0.265925,-1.074737 0.797775,-3.712727 0.53185,-6.936938c-0.354567,-4.201244 -2.1274,-7.034641 -4.166158,-7.034641c-2.1274,-0.097703 -2.836533,0.390813 -2.836533,0.390813s0.975058,5.959904 0.177283,8.207081c-1.772833,5.080574 -6.648125,10.454258 -6.648125,10.454258l0,19.052153l20.2103,0c0.088642,0 0.177283,0 0.177283,0c1.684192,-0.195407 3.013817,-1.75866 3.013817,-3.712727c0,-0.683923 -0.177283,-1.270144 -0.443208,-1.75866c1.506908,-0.390813 2.570608,-1.856364 2.570608,-3.615024c0,-0.977033 -0.354567,-1.856364 -0.886417,-2.540287c0.797775,-0.683923 1.329625,-1.75866 1.329625,-2.9311z" class="st2"/>
  <path fill="#7cbb00" id="svg_9" d="m31.135996,5.167998c0.4,0 0.7,-0.4 0.7,-0.8c0,-0.4 -0.4,-0.7 -0.8,-0.7c-6.2,0.3 -12.1,2.3 -17.2,5.8c-0.3,0.2 -0.4,0.7 -0.2,1c0.1,0.2 0.4,0.3 0.6,0.3c0.1,0 0.3,0 0.4,-0.1c4.9,-3.3 10.6,-5.2 16.5,-5.5z" class="st3"/>
  <path fill="#7cbb00" id="svg_10" d="m11.347995,11.483999c-2.7,2.3 -4.9,5.1 -6.7,8.1c-0.2,0.3 -0.1,0.8 0.3,1c0.1,0.1 0.2,0.1 0.4,0.1c0.3,0 0.5,-0.1 0.6,-0.4c1.7,-2.9 3.9,-5.5 6.4,-7.7c0.3,-0.3 0.3,-0.7 0.1,-1c-0.3,-0.4 -0.7,-0.4 -1.1,-0.1z" class="st3"/>
  <path fill="#7cbb00" id="svg_11" d="m3.819995,22c-0.4,-0.2 -0.8,0 -1,0.4c-0.3,0.7 -0.6,1.5 -0.9,2.2c-0.1,0.4 0.1,0.8 0.4,0.9c0.1,0 0.2,0 0.3,0c0.3,0 0.6,-0.2 0.7,-0.5c0.3,-0.7 0.6,-1.4 0.9,-2.1c0.2,-0.3 0,-0.8 -0.4,-0.9z" class="st3"/>
  <circle fill="#7cbb00" id="svg_12" r="1.5" cy="35.9" cx="23.1" class="st3"/>
  <path fill="#7cbb00" id="svg_13" d="m49.7,43.5l-19.5,0c-0.4,0 -0.7,0.3 -0.7,0.7c0,0.4 0.3,0.7 0.7,0.7l19.5,0c0.4,0 0.7,-0.3 0.7,-0.7c0.1,-0.4 -0.3,-0.7 -0.7,-0.7z" class="st3"/>
  <path fill="#7cbb00" id="svg_14" d="m26.3,43.5l-12.6,0c-0.4,0 -0.7,0.3 -0.7,0.7c0,0.4 0.3,0.7 0.7,0.7l12.7,0c0.4,0 0.7,-0.3 0.7,-0.7c0,-0.4 -0.4,-0.7 -0.8,-0.7z" class="st3"/>
  <path stroke="null" fill="#1a171b" id="svg_15" d="m58.649411,26.152306l-5.707002,0c0.1756,-0.468007 0.1756,-0.842412 0.1756,-1.310419c0,-1.310419 -0.5268,-2.340033 -1.2292,-2.995243c0.5268,-0.655209 1.0536,-1.684824 1.0536,-3.088844c0,-2.059229 -1.492601,-3.837654 -3.248601,-3.837654l-9.219003,0c0.2634,-1.310419 0.6146,-3.463249 0.3512,-5.990485c-0.3512,-4.305661 -2.282801,-7.300904 -4.741202,-7.394505c-2.195001,-0.093601 -2.985201,0.374405 -3.160801,0.468007c-0.2634,0.187203 -0.3512,0.468007 -0.2634,0.748811c0.2634,1.497621 0.878,5.896884 0.2634,7.488106c-1.580401,4.21206 -5.531402,8.611322 -6.409402,9.640937l-6.585002,0c-0.3512,0 -0.6146,0.280804 -0.6146,0.655209l0,5.709681l-7.638603,0c-0.3512,0 -0.6146,0.280804 -0.6146,0.655209l0,5.709681l-7.375203,0c-0.3512,0 -0.6146,0.280804 -0.6146,0.655209l0,21.528306c0,0.374405 0.2634,0.655209 0.6146,0.655209l5.355802,0l0,5.241674c0,0.280804 0.0878,0.468007 0.3512,0.561608c0.0878,0.187203 0.2634,0.187203 0.3512,0.187203c0.0878,0 0.2634,0 0.3512,-0.093601l9.131203,-5.803282l16.857606,0c0.3512,0 0.6146,-0.280804 0.6146,-0.655209l0,-7.581708l6.409402,0l9.131203,5.803282c0.0878,0.093601 0.1756,0.093601 0.3512,0.093601c0.0878,0 0.2634,0 0.3512,-0.093601c0.1756,-0.093601 0.3512,-0.374405 0.3512,-0.561608l0,-5.241674l5.355802,0c0.3512,0 0.6146,-0.280804 0.6146,-0.655209l0,-19.74988c0,-0.374405 -0.2634,-0.748811 -0.6146,-0.748811zm-24.584009,-15.444219c0.7024,-1.872027 0.1756,-6.084086 -0.0878,-7.675309c0.3512,-0.093601 1.0536,-0.187203 2.019401,-0.187203c1.756001,0.093601 3.248601,2.620837 3.512001,6.177688c0.2634,2.995243 -0.2634,5.428877 -0.5268,6.36489c-0.0878,0.187203 0,0.468007 0.0878,0.561608c0.0878,0.187203 0.3512,0.280804 0.5268,0.280804l10.009204,0c0.9658,0 1.931601,1.029615 1.931601,2.527236c0,1.778425 -0.9658,2.433635 -1.2292,2.527236c-0.3512,0 -0.6146,0.280804 -0.6146,0.655209c0,0.374405 0.2634,0.655209 0.6146,0.655209c0.6146,0 1.404801,0.748811 1.404801,2.152831c0,0.936013 -0.3512,1.778425 -1.0536,2.246432c-0.1756,0.093601 -0.2634,0.280804 -0.2634,0.468007c0,0.187203 0,0.374405 0.1756,0.561608c0.439,0.561608 0.7024,1.216817 0.7024,1.965628c0,1.310419 -0.878,2.527236 -2.107201,2.80804c-0.1756,0 -0.3512,0.187203 -0.439,0.374405c-0.0878,0.187203 -0.0878,0.468007 0,0.655209c0.1756,0.468007 0.3512,0.936013 0.3512,1.40402c0,1.497621 -1.0536,2.714439 -2.370601,2.80804c0,0 -0.0878,0 -0.0878,0l-19.316007,0l0,-17.222645c1.0536,-1.029615 5.092402,-5.61608 6.760602,-10.108944zm-13.521205,10.483349l5.619202,0l0,16.941841l-5.619202,0l0,-16.941841zm14.838205,32.947668l-16.330806,0c-0.0878,0 -0.2634,0 -0.3512,0.093601l-8.341003,5.335276l0,-4.680066c0,-0.374405 -0.2634,-0.655209 -0.6146,-0.655209l-5.355802,0l0,-20.217887l6.585002,0l0,12.636179c0,0.374405 0.2634,0.655209 0.6146,0.655209l23.793809,0l0,6.832897zm22.564608,-8.236917l-5.355802,0c-0.3512,0 -0.6146,0.280804 -0.6146,0.655209l0,4.680066l-8.341003,-5.241674c-0.0878,-0.093601 -0.1756,-0.093601 -0.3512,-0.093601l-30.993411,0l0,-18.345861l6.936203,0l0,11.23216c0,0.374405 0.2634,0.655209 0.6146,0.655209l26.86681,0c0.0878,0 0.1756,0 0.2634,0c2.019401,-0.187203 3.512001,-2.059229 3.512001,-4.21206c0,-0.468007 -0.0878,-0.842412 -0.1756,-1.310419c1.404801,-0.655209 2.370601,-2.152831 2.370601,-3.837654c0,-0.842412 -0.2634,-1.684824 -0.6146,-2.340033c0.0878,-0.093601 0.0878,-0.093601 0.1756,-0.187203l5.794802,0l0,18.345861l-0.0878,0z" class="st4"/>
 </g>
</svg>