<svg width="32" height="32" xmlns="http://www.w3.org/2000/svg">

 <g>
  <title>background</title>
  <rect fill="none" id="canvas_background" height="402" width="582" y="-1" x="-1"/>
 </g>
 <g>
  <title>Layer 1</title>
  <path id="svg_2" fill="#00BF00" d="m28,28l-9.5,0c-0.512,0 -1.044,-0.253 -1.608,-0.521c-0.496,-0.236 -1.008,-0.479 -1.392,-0.479l-2,0c-0.276,0 -0.5,-0.224 -0.5,-0.5s0.224,-0.5 0.5,-0.5l2,0c0.609,0 1.225,0.293 1.821,0.576c0.439,0.208 0.892,0.424 1.179,0.424l9.5,0c0.551,0 1,-0.448 1,-1s-0.449,-1 -1,-1c-0.276,0 -0.5,-0.224 -0.5,-0.5s0.224,-0.5 0.5,-0.5l0.5,0c0.551,0 1,-0.448 1,-1s-0.449,-1 -1,-1c-0.276,0 -0.5,-0.224 -0.5,-0.5s0.224,-0.5 0.5,-0.5l0.5,0c0.551,0 1,-0.448 1,-1s-0.449,-1 -1,-1l-0.5,0c-0.276,0 -0.5,-0.224 -0.5,-0.5s0.224,-0.5 0.5,-0.5c0.551,0 1,-0.448 1,-1s-0.449,-1 -1,-1l-9.504,0c-0.154,0 -0.299,-0.071 -0.394,-0.192s-0.128,-0.279 -0.091,-0.429c0.004,-0.02 0.485,-1.975 0.485,-4.313c0,-2.601 -1.039,-2.995 -1.997,-3.055l0,3.489c0,0.077 -0.018,0.154 -0.053,0.224l-2.075,4.149c-0.124,0.246 -0.423,0.348 -0.671,0.224c-0.247,-0.124 -0.347,-0.424 -0.224,-0.671l2.024,-4.044l0,-3.882c0,-0.276 0.224,-0.5 0.5,-0.5c1.046,0 3.497,0 3.497,4.065c0,1.679 -0.229,3.144 -0.382,3.935l8.885,0c1.103,0 2,0.897 2,2c0,0.489 -0.177,0.938 -0.47,1.286c0.581,0.351 0.97,0.987 0.97,1.714s-0.389,1.363 -0.97,1.714c0.293,0.348 0.47,0.797 0.47,1.286c0,0.727 -0.389,1.363 -0.97,1.714c0.293,0.348 0.47,0.797 0.47,1.286c0,1.103 -0.897,2 -2,2z"/>
  <path id="svg_6" fill="#00BF00" d="m13.551,28l-3.551,0l0,-1l3,0l0,-9l-3,0l0,-1l3.551,0c0.277,0 0.449,0.207 0.449,0.482l0,10c0,0.278 -0.172,0.518 -0.449,0.518z"/>
  <path id="svg_9" fill="#00BF00" d="m1.551,30c-0.276,0 -0.5,-0.224 -0.5,-0.5l0,0c0,-0.276 0.224,-0.5 0.5,-0.5l8.449,0l0,-11l-8.449,0c-0.276,0 -0.5,-0.224 -0.5,-0.5l0,0c0,-0.276 0.224,-0.5 0.5,-0.5l9,0c0.277,0 0.449,0.207 0.449,0.482l0,12c0,0.278 -0.172,0.518 -0.449,0.518l-9,0z"/>
  <path id="svg_12" fill="#00BF00" d="m29,22l-5,0c-1.103,0 -2,-0.897 -2,-2s0.897,-2 2,-2l5,0c1.103,0 2,0.897 2,2s-0.897,2 -2,2zm-5,-3c-0.551,0 -1,0.448 -1,1s0.449,1 1,1l5,0c0.551,0 1,-0.448 1,-1s-0.449,-1 -1,-1l-5,0z"/>
  <path id="svg_14" fill="#00BF00" d="m28,28l-3,0c-1.103,0 -2,-0.897 -2,-2s0.897,-2 2,-2l3,0c1.103,0 2,0.897 2,2s-0.897,2 -2,2zm-3,-3c-0.551,0 -1,0.448 -1,1s0.449,1 1,1l3,0c0.551,0 1,-0.448 1,-1s-0.449,-1 -1,-1l-3,0z"/>
  <path id="svg_16" fill="#00BF00" d="m28.5,25l-4,0c-1.103,0 -2,-0.897 -2,-2s0.897,-2 2,-2l4,0c1.103,0 2,0.897 2,2s-0.897,2 -2,2zm-4,-3c-0.551,0 -1,0.448 -1,1s0.449,1 1,1l4,0c0.551,0 1,-0.448 1,-1s-0.449,-1 -1,-1l-4,0z"/>
  <path id="svg_18" fill="#00BF00" d="m28.5,19l-4,0c-1.103,0 -2,-0.897 -2,-2s0.897,-2 2,-2l4,0c1.103,0 2,0.897 2,2s-0.897,2 -2,2zm-4,-3c-0.551,0 -1,0.448 -1,1s0.449,1 1,1l4,0c0.551,0 1,-0.448 1,-1s-0.449,-1 -1,-1l-4,0z"/>
  <path id="svg_20" fill="#00BF00" d="m17.608,23.054c-0.227,0 -0.433,-0.155 -0.486,-0.387c-0.063,-0.269 0.104,-0.537 0.373,-0.601c1.16,-0.271 2.003,-1.266 2.256,-2.661c0.256,-1.414 -0.183,-2.857 -1.044,-3.432c-0.23,-0.153 -0.292,-0.464 -0.139,-0.693c0.152,-0.23 0.462,-0.292 0.693,-0.139c1.216,0.811 1.808,2.596 1.474,4.442c-0.326,1.8 -1.452,3.092 -3.012,3.457c-0.039,0.01 -0.077,0.014 -0.115,0.014z"/>
  <path id="svg_22" fill="#ff7f00" d="m20.145,5.859c0.155,0 0.307,-0.071 0.405,-0.206l1.176,-1.618c0.163,-0.224 0.113,-0.536 -0.11,-0.698c-0.224,-0.162 -0.537,-0.114 -0.698,0.11l-1.176,1.618c-0.163,0.224 -0.113,0.536 0.11,0.698c0.088,0.065 0.19,0.096 0.293,0.096z"/>
  <path id="svg_23" fill="#ff7f00" d="m21.304,7.764c0.069,0.212 0.265,0.346 0.476,0.346c0.051,0 0.103,-0.008 0.154,-0.024l1.902,-0.618c0.263,-0.085 0.407,-0.367 0.321,-0.63c-0.086,-0.264 -0.369,-0.407 -0.63,-0.321l-1.902,0.618c-0.262,0.084 -0.406,0.366 -0.321,0.629z"/>
  <path id="svg_24" fill="#ff7f00" d="m13.696,10.236c-0.085,-0.264 -0.368,-0.407 -0.63,-0.321l-1.902,0.618c-0.263,0.085 -0.407,0.367 -0.321,0.63c0.069,0.212 0.265,0.346 0.476,0.346c0.051,0 0.103,-0.008 0.154,-0.024l1.902,-0.618c0.262,-0.086 0.406,-0.368 0.321,-0.631z"/>
  <path id="svg_25" fill="#ff7f00" d="m23.836,10.533l-1.902,-0.618c-0.263,-0.086 -0.544,0.058 -0.63,0.321c-0.085,0.263 0.059,0.545 0.321,0.63l1.902,0.618c0.051,0.017 0.103,0.024 0.154,0.024c0.211,0 0.407,-0.134 0.476,-0.346c0.086,-0.262 -0.058,-0.544 -0.321,-0.629z"/>
  <path id="svg_26" fill="#ff7f00" d="m11.164,7.467l1.902,0.618c0.051,0.017 0.103,0.024 0.154,0.024c0.211,0 0.407,-0.134 0.476,-0.346c0.085,-0.263 -0.059,-0.545 -0.321,-0.63l-1.902,-0.618c-0.262,-0.085 -0.544,0.058 -0.63,0.321c-0.086,0.264 0.058,0.546 0.321,0.631z"/>
  <path id="svg_27" fill="#ff7f00" d="m14.083,3.447c-0.162,-0.225 -0.475,-0.272 -0.698,-0.11c-0.223,0.162 -0.273,0.475 -0.11,0.698l1.176,1.618c0.098,0.135 0.25,0.206 0.405,0.206c0.102,0 0.205,-0.031 0.293,-0.096c0.223,-0.162 0.273,-0.475 0.11,-0.698l-1.176,-1.618z"/>
  <path id="svg_28" fill="#ff7f00" d="m17.5,2c-0.276,0 -0.5,0.224 -0.5,0.5l0,2c0,0.276 0.224,0.5 0.5,0.5s0.5,-0.224 0.5,-0.5l0,-2c0,-0.276 -0.224,-0.5 -0.5,-0.5z"/>
 </g>
</svg>